<svg id="Layer_1" data-name="Layer 1" xmlns="http://www.w3.org/2000/svg" viewBox="0 0 465 465">
  <defs>
    <style>
      .cls-1 {
        fill: #00a99d;
      }

      .cls-2 {
        fill: #e6e6e6;
      }
    </style>
  </defs>
  <circle class="cls-1" cx="232.5" cy="232.5" r="232.5" />
  <path d="M223.62,119.08h.74c-.31.78-.53.09-.79-.07C223.55,119,223.62,119.08,223.62,119.08Z"
    transform="translate(-23.5 -23.5)" />
  <path class="cls-2"
    d="M248.36,129.77c1,1.7-.65,2.34-1.42,3.16a17.57,17.57,0,0,1-13.67,5.69c-2.16-.05-2.69.66-2.57,2.65.2,3.12-.61,6.19,3,8.5,2.69,1.71,2.56,6.39,0,8.72-2.19,2-1.34,3.11-.06,4.75,3.78,4.85,8.74,8.17,14.08,11,5.74,3.08,11.67,5.84,17,9.66a49.3,49.3,0,0,1,17.49,21.63c.6,1.45,1.08,2.59-.87,3.83-22.59,14.47-37.42,34.76-44.83,60.74L234.79,269c-3.39-2.36-7-2.83-10.71-.95a10.15,10.15,0,0,0-5.83,9.5c-.09,6.53-.23,13.07.05,19.59.14,3.22-1,4.37-4,3.88-5.39-.88-10.92-.9-16.23-1.82s-10.54-1.31-15.79-2c-9.23-1.28-18.52-.54-27.79-.64-9.66-.11-19.34-.18-29,0-3.4.08-4.6-.58-4.55-4.34.22-18.16,0-36.31.16-54.47,0-3-.58-5.2-3.23-6.87a65.39,65.39,0,0,1-5.48-4.42,2.62,2.62,0,0,1-.84-2.82c.27-1.36,1.46-.67,2.25-.82a9.08,9.08,0,0,1,1.17,0c3.21-.26,7.59,1.45,9.33-.7s.58-6.22.6-9.45c0-7.45-.14-14.9.08-22.34.09-3.24-.54-5.83-3.13-7.9-1.21-1-2.11-2.31-3.26-3.38a3.14,3.14,0,0,1-.86-3.23c.35-1.51,1.81-1,2.6-.79,4.39.93,5.7-1.48,6.73-5.18,2.85-10.3,6-20.53,9.16-30.74.66-2.13-.22-4.8,2.55-6.5,3.71,12.53,7.56,25,11.06,37.62,1,3.55,2.35,5.47,6.29,4.81.94-.16,2.49-.81,3,.8a3,3,0,0,1-1.22,3.47c-5.82,4.14-6.51,10-6.14,16.54.44,7.68.23,15.41.05,23.11-.08,2.93.53,4.3,3.77,3.92a49.92,49.92,0,0,1,7.44,0c.78,0,1.93-.57,2.25.79a2.6,2.6,0,0,1-.85,2.82c-2.23,1.81-4.4,3.71-6.7,5.42a4.77,4.77,0,0,0-2.07,4.31c.1,6.92.13,13.85,0,20.77,0,2.31.8,2.83,2.93,2.77,5.1-.14,10.2-.17,15.29,0,2.35.08,2.8-.82,2.76-2.94-.13-5.61-.26-11.24,0-16.84.15-2.68-1.95-4-2.55-6.23-4.85-18.08,0-33.21,13.55-45.79,5.72-5.3,12.62-8.75,19.47-12.28,6.41-3.32,12.58-7,17-12.92,1-1.4,1.42-2.23-.19-3.8-3.23-3.14-2.76-7.42.63-10.24s2.82-10.37-.9-12.76a18.43,18.43,0,0,1-.22-31.27c-3.1,8.71-2.37,16.66,4.91,22.79,6,5,12.81,6.11,20,2.45Z"
    transform="translate(-23.5 -23.5)" />
  <path class="cls-2"
    d="M332.44,382.2a89.21,89.21,0,1,1,89.46-89.42C422.09,342.12,382,382.16,332.44,382.2Zm.1-163.14a74.09,74.09,0,0,0-73.79,73.85c-.05,40.71,33.39,74.15,74.05,74a73.94,73.94,0,0,0-.26-147.88Z"
    transform="translate(-23.5 -23.5)" />
  <path class="cls-2"
    d="M318.9,131.69c4,13.36,7.91,25.9,11.44,38.55,1,3.62,2.52,5.33,6.36,4.68.89-.15,2.29-.61,2.8.54a3.08,3.08,0,0,1-.86,3.56c-1.12,1.08-2,2.42-3.24,3.38a7.9,7.9,0,0,0-3.09,7.87c.34,2.29-.18,3.41-3,3.51a81.61,81.61,0,0,0-21.12,3.63c-2.23.7-3.15.22-2.8-2.19.08-.51,0-1.05,0-1.56.81-5.55-.67-10.2-5.31-13.64a4.73,4.73,0,0,1-1.56-1.72c-.75-1.79-1.3-3.91,1.84-3.37,4.6.8,6.13-1.33,7.27-5.53C311,157,315,144.78,318.9,131.69Z"
    transform="translate(-23.5 -23.5)" />
  <path class="cls-2"
    d="M325.26,270.5c0-8.61.23-17.23-.11-25.82-.15-3.69,1.63-3.45,4.14-3.57,2.87-.13,4,.43,4,3.75-.22,14.48,0,29-.15,43.44,0,2.73.68,3.52,3.44,3.46,8.08-.19,16.18.13,24.26-.17,3.82-.14,2.92,2.15,3,4.22s.37,3.9-3,3.83c-10.95-.23-21.91-.16-32.87,0-2.32,0-2.79-.77-2.77-2.88.1-8.74,0-17.48,0-26.22Z"
    transform="translate(-23.5 -23.5)" />
</svg>
